<svg data-v-fde0c5aa="" xmlns="http://www.w3.org/2000/svg" viewBox="0 0 300 300" class="iconLeft"><!----><defs data-v-fde0c5aa=""><!----></defs><rect data-v-fde0c5aa="" fill="#EBFBFA" x="0" y="0" width="300px" height="300px" class="logo-background-square"></rect><defs data-v-fde0c5aa=""><!----></defs><g data-v-fde0c5aa="" id="9bee49e9-f4c7-4905-9d15-f506f5eabd0c" fill="#220301" transform="matrix(2.6652931333972476,0,0,2.6652931333972476,93.73900656706013,128.39779910297887)"><path d="M0.42 12.29C1.36 12.95 2.62 13.34 3.78 13.34C6.09 13.34 7.21 12.14 7.21 10.53C7.21 9.28 6.31 8.43 5.11 7.92L3.49 7.22C2.80 6.93 2.32 6.58 2.32 5.96C2.32 5.22 2.97 4.65 4.00 4.65C4.72 4.65 5.67 4.94 6.40 5.31C6.71 5.03 6.93 4.56 6.94 4.14C6.22 3.78 5.14 3.42 3.98 3.42C2.10 3.42 0.81 4.61 0.81 6.13C0.81 7.32 1.55 8.05 2.73 8.55L4.38 9.27C5.19 9.62 5.66 10.12 5.66 10.78C5.64 11.55 5.00 12.10 3.86 12.10C2.90 12.10 1.86 11.68 1.05 11.14C0.74 11.40 0.46 11.86 0.42 12.29ZM14.36 8.43C14.36 7.14 13.82 6.13 12.50 6.13C11.68 6.13 10.88 6.52 10.29 7.06L10.29 3.79C10.29 3.15 10.12 2.87 9.52 2.87L8.96 2.87L8.88 2.95L8.88 13.16C9.09 13.20 9.32 13.22 9.58 13.22C9.84 13.22 10.09 13.20 10.29 13.16L10.29 8.30C10.78 7.77 11.49 7.43 12.04 7.43C12.73 7.43 12.92 7.84 12.92 8.78L12.92 12.33C12.92 12.94 13.12 13.26 13.69 13.26C14.04 13.26 14.38 13.12 14.59 12.95C14.42 12.61 14.36 12.17 14.36 11.68ZM21.62 10.16C21.69 9.77 21.71 9.51 21.71 9.06C21.71 7.39 20.75 6.06 18.94 6.06C17.00 6.06 16.02 7.63 16.02 9.72C16.02 11.61 16.69 13.34 18.90 13.34C19.88 13.34 20.86 13.03 21.53 12.56C21.48 12.26 21.31 11.86 21.07 11.63C20.48 11.94 19.82 12.17 19.12 12.17C17.93 12.17 17.56 11.33 17.50 10.16ZM18.93 7.14C19.94 7.14 20.33 7.95 20.33 8.93L20.33 9.11L17.50 9.11C17.57 7.88 18.03 7.14 18.93 7.14ZM23.02 9.79C23.02 11.89 23.83 13.34 25.42 13.34C26.26 13.34 26.98 12.94 27.45 12.39C27.65 12.84 28 13.16 28.56 13.26C28.78 13.12 29.02 12.78 29.09 12.52C28.80 12.25 28.70 11.73 28.70 11.19L28.70 3.79C28.70 3.15 28.53 2.87 27.93 2.87L27.38 2.87L27.29 2.95L27.29 6.59C26.81 6.33 26.28 6.13 25.70 6.13C24.36 6.13 23.02 7.29 23.02 9.79ZM25.76 12.14C25.09 12.14 24.49 11.47 24.49 9.80C24.49 8.09 25.12 7.28 25.90 7.28C26.38 7.28 26.85 7.50 27.29 7.78L27.29 11.26C26.85 11.87 26.25 12.14 25.76 12.14ZM34.45 6.24L33.12 8.41L31.93 6.57C31.74 6.29 31.56 6.13 31.19 6.13C30.88 6.13 30.49 6.26 30.21 6.47L32.23 9.59L30.03 13.01L30.07 13.12C30.27 13.19 30.53 13.23 30.81 13.23C31.02 13.23 31.29 13.22 31.42 13.17L32.93 10.70L34.33 12.84C34.52 13.12 34.72 13.27 35.08 13.27C35.41 13.27 35.80 13.12 36.08 12.94L33.82 9.49L35.80 6.40L35.76 6.29C35.57 6.23 35.32 6.19 35.04 6.19C34.83 6.19 34.58 6.22 34.45 6.24ZM38.96 13.16C39.20 13.20 39.49 13.22 39.72 13.22C39.94 13.22 40.22 13.20 40.46 13.16L40.46 4.84C40.66 4.84 41.09 4.86 41.27 4.86L42.18 4.86C42.76 4.86 43.02 4.68 43.02 4.19C43.02 3.99 42.98 3.77 42.94 3.60L36.50 3.60C36.46 3.82 36.44 4.05 36.44 4.23C36.44 4.41 36.46 4.63 36.50 4.86L38.16 4.86C38.36 4.86 38.78 4.84 38.96 4.84L38.98 4.84C38.98 5.24 38.96 5.50 38.96 5.88ZM48.20 10.16C48.27 9.77 48.30 9.51 48.30 9.06C48.30 7.39 47.33 6.06 45.53 6.06C43.58 6.06 42.60 7.63 42.60 9.72C42.60 11.61 43.27 13.34 45.49 13.34C46.47 13.34 47.45 13.03 48.12 12.56C48.06 12.26 47.89 11.86 47.66 11.63C47.07 11.94 46.41 12.17 45.71 12.17C44.52 12.17 44.14 11.33 44.09 10.16ZM45.51 7.14C46.52 7.14 46.91 7.95 46.91 8.93L46.91 9.11L44.09 9.11C44.16 7.88 44.62 7.14 45.51 7.14ZM53.73 8.92C53.93 8.96 54.10 8.97 54.33 8.97C54.85 8.97 55.06 8.67 55.06 8.18C55.06 7.21 54.24 6.06 52.53 6.06C51.06 6.06 49.60 7.15 49.60 9.74C49.60 11.68 50.46 13.34 52.46 13.34C53.47 13.34 54.36 12.94 54.99 12.31C54.92 12.00 54.64 11.61 54.38 11.45C53.90 11.82 53.33 12.15 52.68 12.15C51.67 12.15 51.10 11.42 51.10 9.74C51.10 8.04 51.62 7.18 52.50 7.18C53.52 7.18 53.76 8.01 53.73 8.92ZM62.16 8.43C62.16 7.14 61.61 6.13 60.30 6.13C59.47 6.13 58.67 6.52 58.09 7.06L58.09 3.79C58.09 3.15 57.92 2.87 57.32 2.87L56.76 2.87L56.67 2.95L56.67 13.16C56.88 13.20 57.12 13.22 57.37 13.22C57.64 13.22 57.89 13.20 58.09 13.16L58.09 8.30C58.58 7.77 59.29 7.43 59.84 7.43C60.52 7.43 60.72 7.84 60.72 8.78L60.72 12.33C60.72 12.94 60.91 13.26 61.49 13.26C61.84 13.26 62.17 13.12 62.38 12.95C62.22 12.61 62.16 12.17 62.16 11.68Z"></path></g><defs data-v-fde0c5aa=""><!----></defs><g data-v-fde0c5aa="" id="168b9a6b-0e17-42b4-ba66-48d8034b47d8" stroke="none" fill="#e5261f" transform="matrix(1.3080759289865265,0,0,1.3080759289865265,40,129.0707851362156)"><path d="M16 32c8.837 0 16-7.163 16-16S24.837 0 16 0 0 7.163 0 16s7.163 16 16 16zM14.817 6.421h2v8.886h8.887v2H14.817V6.421zm-5.959.437h2v14.283h14.283v2H8.858V6.858z"></path></g><!----></svg>